<svg xmlns="http://www.w3.org/2000/svg" viewBox="0 0 64 64" role="img" aria-label="Rota Portal">
  <rect width="64" height="64" rx="14" fill="#0b6bcb"/>
  <path d="M18 14h28a6 6 0 0 1 6 6v28a6 6 0 0 1-6 6H18a6 6 0 0 1-6-6V20a6 6 0 0 1 6-6z" fill="#ffffff"/>
  <path d="M12 24h40" stroke="#d7dce3" stroke-width="4"/>
  <path d="M22 10v10M42 10v10" stroke="#f59e0b" stroke-width="5" stroke-linecap="round"/>
  <rect x="19" y="31" width="10" height="8" rx="2" fill="#0f766e"/>
  <rect x="35" y="31" width="10" height="8" rx="2" fill="#8a4b0f"/>
  <rect x="19" y="43" width="26" height="6" rx="3" fill="#2563eb"/>
</svg>
